<svg width="23" height="25" viewBox="0 0 23 25" fill="none" xmlns="http://www.w3.org/2000/svg">
<path fill-rule="evenodd" clip-rule="evenodd" d="M11.8742 23.0156C18.0189 23.0156 23 18.0345 23 11.8897C23 5.74476 18.0189 0.763672 11.8742 0.763672C5.72974 0.763672 0.748047 5.74476 0.748047 11.8897C0.748047 18.0345 5.72974 23.0156 11.8742 23.0156Z" fill="#5468FF"/>
<path fill-rule="evenodd" clip-rule="evenodd" d="M14.2263 12.0613C13.0659 12.8872 13.0446 13.4635 13.0446 14.4623C13.0446 14.8273 12.8338 15.2497 11.7998 15.2497C10.9349 15.2497 10.6396 14.9616 10.6396 13.9628C10.6396 12.3109 11.4414 11.5234 12.0531 11.0432C12.7493 10.5054 13.9308 9.90996 13.9308 8.87283C13.9308 7.98931 13.087 7.56664 12.032 7.56664C9.88004 7.56664 10.3442 9.04561 9.20488 9.04561C8.63524 9.04561 7.93896 8.69991 7.93896 7.9507C7.93896 6.9137 9.24709 5.37695 12.0955 5.37695C14.7959 5.37695 16.5893 6.74078 16.5893 8.54615C16.5893 10.3517 14.7959 11.658 14.2263 12.0613ZM13.4466 18.0561C13.4466 18.8435 12.7292 19.535 11.8219 19.535C10.915 19.535 10.2187 18.8435 10.2187 18.0561C10.2187 17.2492 10.9361 16.577 11.8219 16.577C12.7081 16.577 13.4466 17.2492 13.4466 18.0561Z" fill="white"/>
<path d="M18.828 24.408C17.1582 23.2508 16.4259 22.2217 14.6558 22.5537L20.2187 19.3086C20.2187 19.3086 18.828 21.1629 20.2187 23.0172L18.828 24.408Z" fill="#5468FF"/>
</svg>
