<svg width="13" height="17" viewBox="0 0 13 17" fill="none" xmlns="http://www.w3.org/2000/svg">
<path fill-rule="evenodd" clip-rule="evenodd" d="M11.5446 9.71913L12.6569 10.8313C12.8429 11.0174 12.9475 11.2696 12.9475 11.5327V12.6097H0.0527344V11.5327C0.0527344 11.2696 0.157349 11.0174 0.343331 10.8313L1.45559 9.71913C1.82756 9.34704 2.03654 8.84251 2.03654 8.3164V5.6664C2.03654 3.53874 3.52706 1.7632 5.51958 1.31582C5.51837 1.30541 5.51696 1.29505 5.51555 1.2847C5.51187 1.25776 5.5082 1.23083 5.5082 1.20284C5.5082 0.656023 5.95329 0.210938 6.5001 0.210938C7.04692 0.210938 7.49201 0.656023 7.49201 1.20284C7.49201 1.23103 7.48829 1.25823 7.48457 1.28539C7.4831 1.29616 7.48162 1.30693 7.48038 1.31775C9.50464 1.78428 10.9637 3.6768 10.9637 5.81922V8.3164C10.9637 8.84251 11.1726 9.34704 11.5446 9.71913ZM6.50003 16.0815C5.40448 16.0815 4.51623 15.1933 4.51623 14.0977V13.6018H8.48384V14.0977C8.48384 15.1933 7.59559 16.0815 6.50003 16.0815Z" fill="white"/>
</svg>
