<svg width="14" height="16" viewBox="0 0 14 16" fill="none" xmlns="http://www.w3.org/2000/svg">
<path d="M7.05838 0.330078C4.5334 0.330078 2.47761 2.4415 2.47761 5.03669C2.47761 7.63012 4.53169 9.74272 7.05838 9.74272C9.58392 9.74272 11.6397 7.63012 11.6397 5.03669C11.6397 2.4415 9.58392 0.330078 7.05838 0.330078ZM10.6459 9.74272C9.66689 10.5363 8.4476 11.0283 7.10415 11.0283C5.7607 11.0283 4.54256 10.5345 3.56129 9.74272C1.70346 10.9554 0.409794 13.0856 0.232422 15.5527C0.882976 15.6432 2.04047 15.7408 3.69175 15.7408H10.5137C12.1661 15.7408 13.3242 15.6432 13.9753 15.5527C13.7991 13.0838 12.5066 10.956 10.6459 9.74272Z" fill="white"/>
</svg>
