<svg width="57" height="51" viewBox="0 0 57 51" fill="none" xmlns="http://www.w3.org/2000/svg">
<path fill-rule="evenodd" clip-rule="evenodd" d="M28.6694 40.6169C39.8256 40.6169 48.8693 31.5732 48.8693 20.4172C48.8693 9.26099 39.8256 0.217264 28.6694 0.217264C17.5135 0.217264 8.46971 9.26099 8.46971 20.4172C8.46971 31.5732 17.5135 40.6169 28.6694 40.6169Z" fill="#AEB8FF"/>
<g filter="url(#filter0_d_9:13)">
<path fill-rule="evenodd" clip-rule="evenodd" d="M21.4396 6.41539C15.6126 6.53996 10.8432 11.2579 10.6591 17.0833C10.5676 19.9775 11.5917 22.6312 13.3339 24.6473C14.1183 25.555 14.3422 26.8202 13.9386 27.9502L13.2132 29.9813C12.9772 30.6421 13.7425 31.2069 14.3042 30.7866L16.8771 28.8623C17.6428 28.2896 18.6149 28.0766 19.5532 28.2615C20.5299 28.454 21.5527 28.5176 22.6045 28.4306C28.1387 27.9726 32.5033 23.3958 32.7022 17.8462C32.9302 11.4898 27.7761 6.27956 21.4396 6.41539Z" fill="#5468FF"/>
</g>
<g filter="url(#filter1_d_9:13)">
<path fill-rule="evenodd" clip-rule="evenodd" d="M44.357 28.6061C43.4238 29.7322 43.1278 31.2542 43.619 32.6312L43.9679 33.6083C43.5277 34.1185 43.0619 34.6065 42.5727 35.0709L40.4059 33.4524C39.4917 32.7706 38.3357 32.5001 37.2145 32.7087C36.4914 32.8439 35.6818 32.9634 35.0939 32.9634C28.4527 32.9634 23.0696 27.5805 23.0696 20.9393C23.0686 14.3045 28.4584 8.91497 35.0939 8.91497C41.7342 8.91497 47.1181 14.2978 47.1181 20.9393C47.1183 23.8528 46.0809 26.5251 44.357 28.6061Z" fill="#F3F5F9"/>
</g>
<path fill-rule="evenodd" clip-rule="evenodd" d="M20.0944 24.5275C19.9012 25.4164 18.9728 26.0324 18.0837 25.8394C17.1296 25.6323 16.5832 24.6963 16.7764 23.8073C16.974 22.8964 17.8543 22.2927 18.8086 22.5C19.6977 22.6929 20.2919 23.6167 20.0944 24.5275ZM20.5765 20.3177C20.4307 20.9899 19.632 21.112 19.1115 20.9989C18.4177 20.8484 17.8935 20.4394 18.0393 19.7669C18.5994 17.1863 19.1007 13.4122 19.6608 10.8315C19.8444 9.98586 20.6422 9.65942 21.531 9.85238C22.3768 10.0358 22.9891 10.6683 22.8053 11.514C22.2452 14.0946 21.1366 17.737 20.5765 20.3177Z" fill="#F3F5F9"/>
<path fill-rule="evenodd" clip-rule="evenodd" d="M37.4047 21.3785C36.2853 22.2534 36.2649 22.864 36.2649 23.9225C36.2649 24.3093 36.0614 24.7568 35.0641 24.7568C34.2298 24.7568 33.9448 24.4515 33.9448 23.3933C33.9448 21.6429 34.7182 20.8085 35.3086 20.2997C35.98 19.7299 37.1197 19.099 37.1197 17.9999C37.1197 17.0638 36.3057 16.6158 35.288 16.6158C33.212 16.6158 33.6598 18.1831 32.5608 18.1831C32.0114 18.1831 31.3396 17.8168 31.3396 17.0228C31.3396 15.924 32.6016 14.2958 35.3493 14.2958C37.9543 14.2958 39.6841 15.7409 39.6841 17.6539C39.6841 19.5668 37.9543 20.951 37.4047 21.3785ZM36.6518 27.7284C36.6518 28.5627 35.9596 29.2954 35.0845 29.2954C34.2094 29.2954 33.5378 28.5627 33.5378 27.7284C33.5378 26.8735 34.23 26.1611 35.0845 26.1611C35.9392 26.1611 36.6518 26.8735 36.6518 27.7284Z" fill="#00D9CD"/>
<defs>
<filter id="filter0_d_9:13" x="0.929053" y="1.92462" width="41.5048" height="43.9673" filterUnits="userSpaceOnUse" color-interpolation-filters="sRGB">
<feFlood flood-opacity="0" result="BackgroundImageFix"/>
<feColorMatrix in="SourceAlpha" type="matrix" values="0 0 0 0 0 0 0 0 0 0 0 0 0 0 0 0 0 0 127 0" result="hardAlpha"/>
<feOffset dy="5.23621"/>
<feGaussianBlur stdDeviation="4.86219"/>
<feColorMatrix type="matrix" values="0 0 0 0 0.239216 0 0 0 0 0.337255 0 0 0 0 0.941176 0 0 0 0.29 0"/>
<feBlend mode="normal" in2="BackgroundImageFix" result="effect1_dropShadow_9:13"/>
<feBlend mode="normal" in="SourceGraphic" in2="effect1_dropShadow_9:13" result="shape"/>
</filter>
<filter id="filter1_d_9:13" x="13.3452" y="4.42678" width="43.4972" height="45.6047" filterUnits="userSpaceOnUse" color-interpolation-filters="sRGB">
<feFlood flood-opacity="0" result="BackgroundImageFix"/>
<feColorMatrix in="SourceAlpha" type="matrix" values="0 0 0 0 0 0 0 0 0 0 0 0 0 0 0 0 0 0 127 0" result="hardAlpha"/>
<feOffset dy="5.23621"/>
<feGaussianBlur stdDeviation="4.86219"/>
<feColorMatrix type="matrix" values="0 0 0 0 0.239216 0 0 0 0 0.337255 0 0 0 0 0.941176 0 0 0 0.28 0"/>
<feBlend mode="normal" in2="BackgroundImageFix" result="effect1_dropShadow_9:13"/>
<feBlend mode="normal" in="SourceGraphic" in2="effect1_dropShadow_9:13" result="shape"/>
</filter>
</defs>
</svg>
