<svg width="169" height="66" viewBox="0 0 169 66" fill="none" xmlns="http://www.w3.org/2000/svg">
<g clip-path="url(#clip0_318:633)">
<path d="M0.415509 32.9248C0.415509 15.0254 14.9258 0.515119 32.8252 0.515119H135.872C153.771 0.515119 168.281 15.0254 168.281 32.9248C168.281 50.8242 153.771 65.3346 135.872 65.3346H32.8252C14.9258 65.3346 0.415509 50.8242 0.415509 32.9248Z" fill="white" fill-opacity="0.85" stroke="#5468FF" stroke-width="0.831019"/>
<path d="M41.1953 31.3707C41.1671 27.8006 43.9473 26.0655 44.0694 25.9857C42.4915 23.5525 40.0494 23.2134 39.1947 23.1835C37.1471 22.9541 35.1558 24.4899 34.1132 24.4899C33.0519 24.4899 31.4363 23.2134 29.7081 23.2433C27.482 23.2832 25.3875 24.6494 24.251 26.7835C21.8934 31.1214 23.6498 37.5036 25.9135 41.0138C27.05 42.7291 28.365 44.6537 30.1026 44.5839C31.7933 44.5141 32.432 43.4371 34.4702 43.4371C36.499 43.4371 37.0907 44.5839 38.8565 44.544C40.6787 44.5141 41.8152 42.8188 42.9142 41.0836C44.2197 39.1191 44.7457 37.1745 44.7645 37.0748C44.7175 37.0549 41.2329 35.6388 41.1953 31.3707" fill="#5468FF"/>
<path d="M37.8608 20.8809C38.7719 19.6743 39.3918 18.0288 39.2228 16.3535C37.9078 16.4133 36.2547 17.3208 35.306 18.5075C34.4701 19.5546 33.7187 21.2598 33.9065 22.8654C35.3906 22.985 36.9122 22.0676 37.8608 20.8809" fill="#5468FF"/>
<path d="M65.7289 44.3344H63.3619L62.0657 40.0065H57.5573L56.3268 44.3344H54.0256L58.4871 29.6055H61.2486L65.7289 44.3344ZM61.6806 38.1915L60.5066 34.3522C60.3844 33.9534 60.1496 33.0359 59.8115 31.58H59.7645C59.6236 32.2082 59.4076 33.1356 59.1071 34.3522L57.9518 38.1915H61.6806Z" fill="#5468FF"/>
<path d="M77.1976 38.901C77.1976 40.706 76.7374 42.132 75.8075 43.1791C74.981 44.1165 73.9478 44.5752 72.7267 44.5752C71.4024 44.5752 70.4537 44.0766 69.8714 43.0694V48.6439H67.6453V37.2058C67.6453 36.0689 67.6171 34.9121 67.5608 33.7155H69.5145L69.6366 35.4008H69.6741C70.4162 34.1343 71.5433 33.4961 73.0461 33.4961C74.2296 33.4961 75.2064 33.9947 75.9954 34.982C76.8031 35.9792 77.1976 37.2756 77.1976 38.901ZM74.934 38.9808C74.934 37.9437 74.718 37.0961 74.2765 36.4279C73.7975 35.7299 73.1494 35.3808 72.3416 35.3808C71.7969 35.3808 71.2991 35.5803 70.8482 35.9592C70.4068 36.3481 70.1062 36.8468 69.9747 37.475C69.9089 37.7642 69.8714 38.0035 69.8714 38.193V39.9681C69.8714 40.7359 70.0968 41.3941 70.5383 41.9226C70.9797 42.4511 71.5621 42.7204 72.2759 42.7204C73.1118 42.7204 73.7599 42.3714 74.2296 41.6933C74.6992 41.0052 74.934 40.1077 74.934 38.9808Z" fill="#5468FF"/>
<path d="M88.6937 38.901C88.6937 40.706 88.2335 42.132 87.3036 43.1791C86.4771 44.1165 85.4439 44.5752 84.2228 44.5752C82.8985 44.5752 81.9498 44.0766 81.3675 43.0694V48.6439H79.1414V37.2058C79.1414 36.0689 79.1132 34.9121 79.0569 33.7155H81.0106L81.1327 35.4008H81.1702C81.9122 34.1343 83.0394 33.4961 84.5422 33.4961C85.7257 33.4961 86.7025 33.9947 87.4915 34.982C88.2992 35.9792 88.6937 37.2756 88.6937 38.901ZM86.4301 38.9808C86.4301 37.9437 86.2141 37.0961 85.7726 36.4279C85.2936 35.7299 84.6455 35.3808 83.8377 35.3808C83.293 35.3808 82.7952 35.5803 82.3443 35.9592C81.9029 36.3481 81.6117 36.8468 81.4708 37.475C81.405 37.7642 81.3675 38.0035 81.3675 38.193V39.9681C81.3675 40.7359 81.5929 41.3941 82.0344 41.9226C82.4758 42.4511 83.0581 42.7204 83.772 42.7204C84.6079 42.7204 85.2654 42.3714 85.7257 41.6933C86.2047 41.0052 86.4301 40.1077 86.4301 38.9808Z" fill="#5468FF"/>
<path d="M101.562 40.2064C101.562 41.4629 101.149 42.48 100.331 43.2678C99.4297 44.1254 98.171 44.5543 96.5555 44.5543C95.0621 44.5543 93.8692 44.2451 92.9675 43.6368L93.4841 41.6723C94.461 42.2806 95.5317 42.5897 96.6964 42.5897C97.5323 42.5897 98.1898 42.3903 98.6501 41.9914C99.1197 41.5925 99.3545 41.054 99.3545 40.3859C99.3545 39.7875 99.1573 39.2889 98.7816 38.8801C98.3965 38.4712 97.7578 38.0923 96.8655 37.7432C94.414 36.7759 93.2023 35.3698 93.2023 33.525C93.2023 32.3183 93.6344 31.3311 94.4891 30.5533C95.3439 29.7854 96.4804 29.3965 97.8987 29.3965C99.1573 29.3965 100.209 29.6258 101.045 30.0945L100.482 32.0092C99.6926 31.5605 98.8097 31.3311 97.8141 31.3311C97.0345 31.3311 96.4146 31.5405 95.9732 31.9394C95.6069 32.3084 95.419 32.7471 95.419 33.2757C95.419 33.8541 95.635 34.3427 96.0577 34.7117C96.424 35.0607 97.1003 35.4396 98.0771 35.8485C99.27 36.3571 100.143 36.9554 100.707 37.6435C101.28 38.3316 101.562 39.1892 101.562 40.2064Z" fill="#5468FF"/>
<path d="M108.926 35.49H106.475V40.6456C106.475 41.952 106.907 42.6101 107.771 42.6101C108.165 42.6101 108.494 42.5702 108.757 42.5004L108.823 44.2954C108.381 44.465 107.808 44.5547 107.094 44.5547C106.212 44.5547 105.535 44.2655 105.037 43.6971C104.54 43.1287 104.295 42.1713 104.295 40.8351V35.48H102.84V33.7149H104.295V31.7703L106.475 31.0723V33.7149H108.926V35.49Z" fill="#5468FF"/>
<path d="M119.953 38.9407C119.953 40.5762 119.511 41.9124 118.638 42.9595C117.717 44.0365 116.496 44.575 114.974 44.575C113.509 44.575 112.335 44.0565 111.462 43.0293C110.588 42.0022 110.156 40.6958 110.156 39.1202C110.156 37.4748 110.607 36.1286 111.499 35.0815C112.401 34.0344 113.612 33.5059 115.134 33.5059C116.599 33.5059 117.783 34.0244 118.675 35.0615C119.53 36.0587 119.953 37.3551 119.953 38.9407ZM117.651 38.9906C117.651 38.0133 117.454 37.1856 117.06 36.4876C116.59 35.6399 115.923 35.2211 115.059 35.2211C114.167 35.2211 113.481 35.6399 113.021 36.4876C112.617 37.1856 112.429 38.0332 112.429 39.0404C112.429 40.0177 112.626 40.8554 113.021 41.5435C113.5 42.3911 114.176 42.8099 115.04 42.8099C115.886 42.8099 116.552 42.3811 117.041 41.5235C117.445 40.8055 117.651 39.9679 117.651 38.9906Z" fill="#5468FF"/>
<path d="M127.185 35.7897C126.969 35.7498 126.734 35.7299 126.481 35.7299C125.701 35.7299 125.091 36.039 124.668 36.6673C124.302 37.2157 124.114 37.9238 124.114 38.7614V44.3359H121.888V37.0562C121.888 35.8296 121.869 34.7127 121.822 33.7155H123.757L123.841 35.7498H123.907C124.142 35.0518 124.508 34.4833 125.016 34.0645C125.513 33.6856 126.049 33.4961 126.622 33.4961C126.828 33.4961 127.016 33.516 127.176 33.536L127.185 35.7897Z" fill="#5468FF"/>
<path d="M137.123 38.5208C137.123 38.9396 137.094 39.2986 137.038 39.5878H130.369C130.397 40.6349 130.717 41.4426 131.337 41.9911C131.9 42.4797 132.624 42.729 133.516 42.729C134.502 42.729 135.404 42.5595 136.212 42.2304L136.559 43.8659C135.61 44.3047 134.493 44.524 133.206 44.524C131.656 44.524 130.435 44.0354 129.552 43.0681C128.669 42.1008 128.228 40.7944 128.228 39.169C128.228 37.5734 128.641 36.2371 129.468 35.1701C130.332 34.0333 131.496 33.4648 132.962 33.4648C134.399 33.4648 135.498 34.0333 136.23 35.1701C136.822 36.0875 137.123 37.1945 137.123 38.5208ZM135 37.9125C135.019 37.2144 134.868 36.6061 134.568 36.0975C134.183 35.4393 133.591 35.1103 132.802 35.1103C132.079 35.1103 131.487 35.4294 131.036 36.0676C130.67 36.5762 130.444 37.1945 130.379 37.9025L135 37.9125Z" fill="#5468FF"/>
<path d="M60.6095 24.3414H59.4448L58.8061 22.2173H56.5894L55.9789 24.3414H54.8518L57.0403 17.1016H58.3928L60.6095 24.3414ZM58.6089 21.3198L58.0359 19.4251C57.9796 19.2356 57.8668 18.7769 57.6884 18.0589H57.6696C57.5945 18.368 57.5005 18.8168 57.3409 19.4251L56.7773 21.3198H58.6089Z" fill="#5468FF"/>
<path d="M66.0946 19.1152L64.2349 24.3407H63.1735L61.3701 19.1152H62.5442L63.3801 21.8775C63.521 22.3363 63.6431 22.775 63.7371 23.1939H63.7652C63.8498 22.8149 63.9719 22.3762 64.1222 21.8775L64.9487 19.1152H66.0946Z" fill="#5468FF"/>
<path d="M70.0585 24.3425L69.9739 23.7442H69.9458C69.6076 24.2229 69.1286 24.4622 68.5087 24.4622C67.6258 24.4622 67.0059 23.804 67.0059 22.9265C67.0059 21.6401 68.0578 20.9719 69.88 20.9719V20.8722C69.88 20.1841 69.5325 19.8451 68.8562 19.8451C68.3678 19.8451 67.9451 19.9747 67.5694 20.234L67.344 19.4761C67.7948 19.1769 68.3678 19.0273 69.0347 19.0273C70.3215 19.0273 70.9696 19.7453 70.9696 21.1913V23.116C70.9696 23.6445 70.9883 24.0533 71.0447 24.3625L70.0585 24.3425ZM69.9082 21.7398C68.6965 21.7398 68.086 22.0489 68.086 22.7968C68.086 23.3453 68.396 23.6146 68.8374 23.6146C69.3916 23.6146 69.9082 23.1658 69.9082 22.5475V21.7398Z" fill="#5468FF"/>
<path d="M73.402 18.2572C73.0357 18.2572 72.7539 17.9581 72.7539 17.5592C72.7539 17.1603 73.0451 16.8711 73.4208 16.8711C73.7965 16.8711 74.0971 17.1603 74.0877 17.5592C74.0877 17.978 73.8059 18.2572 73.402 18.2572ZM72.876 19.1148H73.9656V24.3303H72.876V19.1148Z" fill="#5468FF"/>
<path d="M75.9102 16.7227H76.9997V24.3315H75.9102V16.7227Z" fill="#5468FF"/>
<path d="M81.6395 24.3408L81.555 23.7425H81.5268C81.1887 24.2211 80.7097 24.4605 80.0897 24.4605C79.2068 24.4605 78.5869 23.8023 78.5869 22.9247C78.5869 21.6383 79.6389 20.9702 81.4611 20.9702V20.8705C81.4611 20.1824 81.1135 19.8433 80.4373 19.8433C79.9489 19.8433 79.5262 19.973 79.1505 20.2322L78.9251 19.4644C79.3759 19.1652 79.9489 19.0156 80.6157 19.0156C81.9025 19.0156 82.5506 19.7336 82.5506 21.1796V23.1042C82.5506 23.6328 82.5694 24.0416 82.6164 24.3508H81.6395V24.3408ZM81.4893 21.738C80.2776 21.738 79.6671 22.0472 79.6671 22.7951C79.6671 23.3436 79.977 23.6128 80.4185 23.6128C80.9727 23.6128 81.4893 23.1641 81.4893 22.5458V21.738Z" fill="#5468FF"/>
<path d="M86.9836 24.4611C86.2886 24.4611 85.772 24.152 85.4338 23.5337H85.4151L85.3493 24.3414H84.4194C84.4476 23.9226 84.457 23.4539 84.457 22.9354V16.7227H85.5559V19.8839H85.5747C85.9035 19.3055 86.4201 19.0163 87.1433 19.0163C88.3268 19.0163 89.1533 20.0933 89.1533 21.6589C89.1533 23.2744 88.2328 24.4611 86.9836 24.4611ZM86.7582 19.9237C86.1289 19.9237 85.5559 20.5021 85.5559 21.3099V22.2273C85.5559 22.9453 86.0725 23.5337 86.7394 23.5337C87.5566 23.5337 88.045 22.8257 88.045 21.6988C88.045 20.6417 87.5378 19.9237 86.7582 19.9237Z" fill="#5468FF"/>
<path d="M90.769 16.7227H91.8586V24.3315H90.769V16.7227Z" fill="#5468FF"/>
<path d="M97.8044 22.0077H94.5263C94.5451 22.995 95.165 23.5534 96.0761 23.5534C96.5645 23.5534 97.006 23.4636 97.4005 23.3041L97.5695 24.1118C97.1093 24.3312 96.5645 24.431 95.9258 24.431C94.3854 24.431 93.4744 23.4038 93.4744 21.7983C93.4744 20.2027 94.4042 18.9961 95.8037 18.9961C97.053 18.9961 97.8513 19.9833 97.8513 21.4792C97.8513 21.6886 97.8419 21.8681 97.8044 22.0077ZM96.8087 21.18C96.8087 20.3723 96.4236 19.8038 95.7286 19.8038C95.0993 19.8038 94.6109 20.3822 94.5357 21.18H96.8087Z" fill="#5468FF"/>
<path d="M104.426 24.4605C102.989 24.4605 102.059 23.3236 102.059 21.7779C102.059 20.1624 103.008 19.0156 104.511 19.0156C105.929 19.0156 106.877 20.1026 106.877 21.6882C106.877 23.3137 105.901 24.4605 104.426 24.4605ZM104.473 19.8633C103.684 19.8633 103.177 20.6511 103.177 21.738C103.177 22.815 103.693 23.5929 104.464 23.5929C105.234 23.5929 105.75 22.7552 105.75 21.7081C105.741 20.6511 105.243 19.8633 104.473 19.8633Z" fill="#5468FF"/>
<path d="M112.748 24.341H111.658V21.3394C111.658 20.4119 111.32 19.9532 110.663 19.9532C110.015 19.9532 109.573 20.5416 109.573 21.2297V24.331H108.484V20.6114C108.484 20.1527 108.474 19.6541 108.446 19.1156H109.404L109.451 19.9233H109.479C109.77 19.3649 110.372 19.0059 111.038 19.0059C112.072 19.0059 112.748 19.8435 112.748 21.2097V24.341Z" fill="#5468FF"/>
<path d="M119.896 19.9923H118.694V22.5252C118.694 23.1734 118.91 23.4926 119.332 23.4926C119.52 23.4926 119.689 23.4726 119.821 23.4427L119.849 24.3202C119.633 24.41 119.351 24.4499 119.004 24.4499C118.139 24.4499 117.632 23.9413 117.632 22.625V19.9923H116.918V19.1247H117.632V18.1674L118.703 17.8184V19.1147H119.905V19.9923" fill="#5468FF"/>
<path d="M125.682 24.3414H124.592V21.3597C124.592 20.4224 124.254 19.9537 123.596 19.9537C123.033 19.9537 122.507 20.3625 122.507 21.1902V24.3315H121.417V16.7227H122.507V19.8539H122.526C122.873 19.2855 123.362 19.0063 124 19.0063C125.043 19.0063 125.682 19.8639 125.682 21.2301V24.3414Z" fill="#5468FF"/>
<path d="M131.261 22.0077H127.983C128.002 22.995 128.622 23.5534 129.533 23.5534C130.021 23.5534 130.463 23.4636 130.857 23.3041L131.026 24.1118C130.566 24.3312 130.021 24.431 129.382 24.431C127.842 24.431 126.931 23.4038 126.931 21.7983C126.931 20.2027 127.861 18.9961 129.26 18.9961C130.51 18.9961 131.308 19.9833 131.308 21.4792C131.308 21.6886 131.299 21.8681 131.261 22.0077ZM130.265 21.18C130.265 20.3723 129.88 19.8038 129.185 19.8038C128.556 19.8038 128.058 20.3822 127.992 21.18H130.265Z" fill="#5468FF"/>
</g>
<defs>
<clipPath id="clip0_318:633">
<rect width="168.697" height="65.6505" fill="white" transform="translate(0 0.0996094)"/>
</clipPath>
</defs>
</svg>
