<svg width="49" height="50" viewBox="0 0 49 50" fill="none" xmlns="http://www.w3.org/2000/svg">
<path d="M42.1473 36.8222L42.1472 36.8222C40.6793 38.4835 40.238 40.6912 40.9902 42.669C40.9902 42.6691 40.9903 42.6692 40.9903 42.6693L41.6246 44.3351L41.8446 44.9128L41.4262 45.3679C40.6026 46.2634 39.7318 47.1191 38.8179 47.9324L38.2271 48.4582L37.5794 48.0045L33.6397 45.2448C32.1975 44.2365 30.3641 43.8312 28.5805 44.142C28.5803 44.142 28.5802 44.1421 28.58 44.1421L28.4082 43.1569L42.1473 36.8222ZM42.1473 36.8222C45.4331 33.1029 47.4195 28.3137 47.4191 23.0843L42.1473 36.8222ZM24.5518 1.57715C11.994 1.57715 1.6828 11.1572 1.68457 23.0843L47.4191 23.0842C47.4191 11.1459 37.119 1.57715 24.5518 1.57715Z" fill="#00D9CD" stroke="white" stroke-width="2"/>
<path fill-rule="evenodd" clip-rule="evenodd" d="M41.3973 35.8323C39.7001 37.753 39.1619 40.3487 40.0551 42.697L40.6896 44.3631C39.8889 45.2338 39.0419 46.0661 38.1526 46.8576L34.2122 44.0974C32.5492 42.9347 30.447 42.4736 28.4077 42.8291C27.0925 43.0597 25.6204 43.2636 24.5513 43.2636C21.9995 35.6719 21.9995 35.6719 21.4512 33.6719C23.9995 31.1719 25.9995 33.6719 22.4994 27.1719C29.4996 19.1719 27.9996 21.1719 29.9996 11.6719C42.4996 20.1719 34.4996 14.6719 46.4186 22.7564C46.4188 26.3526 45.4311 29.7331 43.6968 32.6719C43.0347 33.7939 42.2637 34.8516 41.3973 35.8323Z" fill="#1ABFB6"/>
<path fill-rule="evenodd" clip-rule="evenodd" d="M28.6426 23.0156C26.5623 24.5407 26.5241 25.605 26.5241 27.4494C26.5241 28.1235 26.1461 28.9034 24.2925 28.9034C22.742 28.9034 22.2126 28.3715 22.2126 26.527C22.2126 23.4766 23.65 22.0222 24.7466 21.1355C25.9948 20.1424 28.1129 19.0428 28.1129 17.1276C28.1129 15.496 26.6002 14.7155 24.7087 14.7155C20.8509 14.7155 21.6829 17.4466 19.6405 17.4466C18.6193 17.4466 17.3711 16.8082 17.3711 15.4247C17.3711 13.5097 19.7162 10.6719 24.8226 10.6719C29.6638 10.6719 32.8788 13.1904 32.8788 16.5243C32.8788 19.8585 29.6638 22.2708 28.6426 23.0156ZM27.243 34.0821C27.243 35.5362 25.9569 36.8133 24.3303 36.8133C22.7045 36.8133 21.4562 35.5362 21.4562 34.0821C21.4562 32.5922 22.7423 31.3507 24.3303 31.3507C25.9191 31.3507 27.243 32.5922 27.243 34.0821Z" fill="white"/>
</svg>
