<svg width="169" height="66" viewBox="0 0 169 66" fill="none" xmlns="http://www.w3.org/2000/svg">
<path d="M33.1285 0.515119H136.175C154.074 0.515119 168.584 15.0254 168.584 32.9248C168.584 50.8242 154.074 65.3346 136.175 65.3346H33.1285C15.2291 65.3346 0.718732 50.8242 0.718732 32.9248C0.718732 15.0254 15.2291 0.515119 33.1285 0.515119Z" fill="white" fill-opacity="0.85" stroke="#44BCB6" stroke-width="0.831019"/>
<path fill-rule="evenodd" clip-rule="evenodd" d="M19.5734 18.0309C19.2304 18.4022 19.0333 18.9737 19.0333 19.7163V46.13C19.0333 46.8726 19.2304 47.4441 19.5862 47.8025L19.6791 47.8816L34.3713 33.0814V32.7488L19.6663 17.9518L19.5734 18.0309V18.0309Z" fill="url(#paint0_linear_1:29)"/>
<path fill-rule="evenodd" clip-rule="evenodd" d="M39.259 38.0337L34.3584 33.0955V32.75L39.2606 27.8118L39.3663 27.878L45.1644 31.197C46.8246 32.1398 46.8246 33.6928 45.1644 34.6485L39.3663 37.9676C39.3647 37.9676 39.259 38.0337 39.259 38.0337V38.0337Z" fill="url(#paint1_linear_1:29)"/>
<path fill-rule="evenodd" clip-rule="evenodd" d="M39.3648 37.9676L34.3584 32.9229L19.5733 47.8167C20.1134 48.4011 21.022 48.4673 22.038 47.8958L39.3648 37.9676Z" fill="url(#paint2_linear_1:29)"/>
<path fill-rule="evenodd" clip-rule="evenodd" d="M39.3648 27.8796L22.038 17.9644C21.0236 17.38 20.1134 17.4591 19.5733 18.0435L34.3568 32.9228L39.3648 27.8796Z" fill="url(#paint3_linear_1:29)"/>
<path opacity="0.2" fill-rule="evenodd" clip-rule="evenodd" d="M39.2592 37.8611L22.051 47.7101C21.0895 48.2671 20.2321 48.2284 19.6792 47.7231L19.5863 47.8167L19.6792 47.8958C20.2321 48.3995 21.0895 48.4398 22.051 47.8829L39.3778 37.9676L39.2592 37.8611V37.8611Z" fill="#5468FF"/>
<path opacity="0.12" fill-rule="evenodd" clip-rule="evenodd" d="M45.1629 34.4758L39.2463 37.8611L39.352 37.9677L45.1501 34.6486C45.9802 34.1707 46.3888 33.5476 46.3888 32.9229C46.336 33.4943 45.9145 34.0384 45.1629 34.4758V34.4758Z" fill="#5468FF"/>
<path opacity="0.25" fill-rule="evenodd" clip-rule="evenodd" d="M22.038 18.1369L45.1628 31.3712C45.9144 31.7958 46.3359 32.3527 46.4016 32.9242C46.4016 32.301 45.9929 31.6763 45.1628 31.1985L22.038 17.9641C20.3777 17.0085 19.0332 17.8043 19.0332 19.7157V19.8884C19.0332 17.9771 20.3777 17.1941 22.038 18.1369Z" fill="white"/>
<path fill-rule="evenodd" clip-rule="evenodd" d="M53.0457 37.0844C53.0457 32.8532 56.5761 29.4082 60.7764 29.4082C63.0985 29.4082 64.7507 30.3268 65.9975 31.523L64.5296 33.0017C63.6386 32.159 62.4302 31.5052 60.7748 31.5052C57.7075 31.5052 55.3101 33.9929 55.3101 37.0828C55.3101 40.1726 57.7075 42.6635 60.7732 42.6635C62.762 42.6635 63.8934 41.8596 64.6193 41.1267C65.2139 40.5277 65.6033 39.6673 65.7539 38.4872H60.7764V36.395H67.7827C67.8565 36.7696 67.8949 37.2184 67.8949 37.7043C67.8949 39.275 67.467 41.2235 66.0905 42.6102C64.7507 44.0147 63.0424 44.7638 60.7748 44.7638C56.5729 44.7638 53.0425 41.322 53.0425 37.0876L53.0457 37.0844ZM73.5583 34.876C70.8452 34.876 68.6305 36.9552 68.6305 39.8174C68.6305 42.6651 70.8436 44.7589 73.5583 44.7589C76.2731 44.7589 78.483 42.6619 78.483 39.8158C78.483 36.9536 76.2715 34.8743 73.5583 34.876V34.876ZM73.5583 42.8153C72.0728 42.8153 70.7891 41.5803 70.7891 39.819C70.7891 38.0401 72.0712 36.8228 73.5583 36.8228C75.0439 36.8228 76.3259 38.0384 76.3259 39.819C76.3259 41.5787 75.0455 42.8153 73.5583 42.8153ZM84.3034 34.876C81.5903 34.876 79.3788 36.9552 79.3788 39.8174C79.3788 42.6651 81.5903 44.7589 84.3034 44.7589C87.0166 44.7589 89.2281 42.6619 89.2281 39.8158C89.2281 36.9536 87.0182 34.8743 84.3034 34.876V34.876ZM84.3034 42.8153C82.8179 42.8153 81.5342 41.5803 81.5342 39.819C81.5342 38.0401 82.8163 36.8228 84.3034 36.8228C85.789 36.8228 87.0727 38.0384 87.0727 39.819C87.0727 41.5787 85.789 42.8153 84.3034 42.8153ZM97.4908 35.1762V35.9802H97.4171C96.9348 35.3974 96.0053 34.8743 94.8354 34.8743C92.3819 34.8743 90.1303 37.0472 90.1303 39.8384C90.1303 42.607 92.3803 44.7621 94.8354 44.7621C96.0053 44.7621 96.9348 44.2391 97.4171 43.6402H97.4908V44.3505C97.4908 46.2409 96.4876 47.2531 94.8707 47.2531C93.5502 47.2531 92.7329 46.2974 92.3979 45.4951L90.5197 46.2812C91.0582 47.5905 92.4909 49.2016 94.8691 49.2016C97.3947 49.2016 99.5325 47.7018 99.5325 44.0518V35.1746L97.4908 35.1762ZM95.0197 42.8153C93.5341 42.8153 92.2858 41.5593 92.2858 39.8384C92.2858 38.0982 93.5325 36.8245 95.0197 36.8245C96.4876 36.8245 97.6399 38.0966 97.6399 39.8384C97.6415 41.5593 96.4893 42.8153 95.0197 42.8153ZM101.021 29.9329H103.178V44.4619H101.021V29.9329ZM109.09 42.8153C107.994 42.8153 107.212 42.3084 106.714 41.3188L113.274 38.5825L113.048 38.0207C112.641 36.9181 111.395 34.876 108.848 34.876C106.321 34.876 104.22 36.8793 104.22 39.819C104.22 42.5876 106.302 44.7605 109.09 44.7605C111.34 44.7605 112.641 43.377 113.18 42.5699L111.507 41.4479C110.947 42.2728 110.185 42.8169 109.09 42.8153V42.8153ZM108.922 36.7857C109.776 36.7857 110.5 37.2167 110.742 37.8334L106.355 39.6689C106.3 37.7592 107.824 36.7857 108.922 36.7857V36.7857Z" fill="#44BCB6"/>
<path fill-rule="evenodd" clip-rule="evenodd" d="M122.739 29.9336H117.582V44.4626H119.734V38.9593H122.741C125.127 38.9593 127.473 37.219 127.473 34.4456C127.473 31.677 125.129 29.9352 122.744 29.9352L122.739 29.9336ZM122.795 36.9365H119.734V31.9547H122.795C124.404 31.9547 125.321 33.2994 125.321 34.4456C125.321 35.5724 124.404 36.9365 122.795 36.9365V36.9365ZM130.811 44.4626V29.9336H128.659V44.4626H130.811ZM140.479 44.4367V38.8673C140.479 36.2876 138.566 34.8492 136.096 34.8492C134.54 34.8492 132.927 35.5418 132.258 37.0738L134.169 37.8761C134.577 37.0738 135.337 36.8106 136.136 36.8106C137.249 36.8106 138.38 37.4838 138.398 38.6816V38.8318C138.008 38.6074 137.175 38.27 136.152 38.27C134.093 38.27 131.997 39.4097 131.997 41.5406C131.997 43.4859 133.686 44.737 135.579 44.737C137.027 44.737 137.824 44.0832 138.324 43.318H138.398V44.44H140.478L140.479 44.4367ZM135.84 42.8127C135.135 42.8127 134.151 42.4576 134.151 41.581C134.151 40.459 135.377 40.0264 136.435 40.0264C137.382 40.0264 137.826 40.2314 138.402 40.5123C138.237 41.8167 137.143 42.7966 135.84 42.8127V42.8127ZM148.048 35.1672L145.58 41.4647H145.507L142.946 35.1672H140.627L144.467 43.9718L142.276 48.8681H144.521L150.439 35.1672H148.048Z" fill="#44BCB6"/>
<path d="M59.6092 24.3415H58.4446L57.8059 22.2174H55.5892L54.9787 24.3415H53.8516L56.04 17.1016H57.3926L59.6092 24.3415ZM57.6086 21.3199L57.0357 19.4252C56.9793 19.2357 56.8666 18.777 56.6881 18.059H56.6694C56.5942 18.3681 56.5003 18.8169 56.3406 19.4252L55.7771 21.3199H57.6086Z" fill="#44BCB6"/>
<path d="M65.0944 19.1159L63.2346 24.3413H62.1733L60.3699 19.1159H61.5439L62.3799 21.8782C62.5208 22.3369 62.6429 22.7757 62.7368 23.1945H62.765C62.8495 22.8156 62.9716 22.3768 63.1219 21.8782L63.9485 19.1159H65.0944" fill="#44BCB6"/>
<path d="M69.0582 24.3418L68.9737 23.7435H68.9455C68.6074 24.2222 68.1284 24.4615 67.5084 24.4615C66.6255 24.4615 66.0056 23.8033 66.0056 22.9258C66.0056 21.6393 67.0576 20.9712 68.8798 20.9712V20.8715C68.8798 20.1834 68.5322 19.8443 67.856 19.8443C67.3676 19.8443 66.9449 19.974 66.5692 20.2333L66.3438 19.4754C66.7946 19.1762 67.3676 19.0266 68.0344 19.0266C69.3212 19.0266 69.9693 19.7446 69.9693 21.1906V23.1152C69.9693 23.6438 69.9881 24.0526 70.0445 24.3618L69.0582 24.3418V24.3418ZM68.9079 21.7391C67.6963 21.7391 67.0858 22.0482 67.0858 22.7961C67.0858 23.3446 67.3957 23.6138 67.8372 23.6138C68.3914 23.6138 68.9079 23.1651 68.9079 22.5468V21.7391Z" fill="#44BCB6"/>
<path d="M72.4019 18.2581C72.0355 18.2581 71.7538 17.959 71.7538 17.5601C71.7538 17.1612 72.0449 16.872 72.4206 16.872C72.7963 16.872 73.0969 17.1612 73.0875 17.5601C73.0875 17.9789 72.8057 18.2581 72.4019 18.2581V18.2581ZM71.8759 19.1157H72.9654V24.3312H71.8759V19.1157V19.1157Z" fill="#44BCB6"/>
<path d="M74.9098 16.7227H75.9994V24.3315H74.9098V16.7227Z" fill="#44BCB6"/>
<path d="M80.6393 24.3412L80.5548 23.7429H80.5266C80.1885 24.2216 79.7095 24.4609 79.0895 24.4609C78.2066 24.4609 77.5867 23.8027 77.5867 22.9252C77.5867 21.6388 78.6387 20.9706 80.4609 20.9706V20.8709C80.4609 20.1828 80.1133 19.8438 79.4371 19.8438C78.9487 19.8438 78.526 19.9734 78.1503 20.2327L77.9249 19.4648C78.3757 19.1657 78.9487 19.0161 79.6155 19.0161C80.9023 19.0161 81.5504 19.7341 81.5504 21.18V23.1047C81.5504 23.6332 81.5692 24.0421 81.6162 24.3512H80.6393V24.3412V24.3412ZM80.4891 21.7385C79.2774 21.7385 78.6669 22.0476 78.6669 22.7955C78.6669 23.344 78.9768 23.6133 79.4183 23.6133C79.9725 23.6133 80.4891 23.1645 80.4891 22.5462V21.7385Z" fill="#44BCB6"/>
<path d="M85.9835 24.4611C85.2884 24.4611 84.7718 24.152 84.4337 23.5337H84.4149L84.3491 24.3414H83.4193C83.4474 23.9226 83.4568 23.4539 83.4568 22.9354V16.7227H84.5558V19.8839H84.5746C84.9033 19.3055 85.4199 19.0163 86.1431 19.0163C87.3266 19.0163 88.1531 20.0933 88.1531 21.6589C88.1531 23.2744 87.2327 24.4611 85.9835 24.4611V24.4611ZM85.758 19.9237C85.1287 19.9237 84.5558 20.5021 84.5558 21.3099V22.2273C84.5558 22.9453 85.0724 23.5337 85.7392 23.5337C86.5564 23.5337 87.0448 22.8257 87.0448 21.6988C87.0448 20.6417 86.5376 19.9237 85.758 19.9237V19.9237Z" fill="#44BCB6"/>
<path d="M89.7688 16.7227H90.8583V24.3315H89.7688V16.7227Z" fill="#44BCB6"/>
<path d="M96.804 22.0082H93.526C93.5448 22.9955 94.1647 23.5539 95.0758 23.5539C95.5642 23.5539 96.0057 23.4641 96.4002 23.3046L96.5692 24.1123C96.109 24.3317 95.5642 24.4315 94.9255 24.4315C93.3851 24.4315 92.474 23.4043 92.474 21.7988C92.474 20.2032 93.4039 18.9966 94.8034 18.9966C96.0526 18.9966 96.851 19.9838 96.851 21.4797C96.851 21.6891 96.8416 21.8686 96.804 22.0082V22.0082ZM95.8084 21.1805C95.8084 20.3728 95.4233 19.8043 94.7283 19.8043C94.099 19.8043 93.6105 20.3827 93.5354 21.1805H95.8084Z" fill="#44BCB6"/>
<path d="M103.426 24.4609C101.989 24.4609 101.059 23.3241 101.059 21.7784C101.059 20.1629 102.008 19.0161 103.51 19.0161C104.929 19.0161 105.877 20.103 105.877 21.6886C105.877 23.3141 104.901 24.4609 103.426 24.4609ZM103.473 19.8637C102.684 19.8637 102.177 20.6515 102.177 21.7385C102.177 22.8155 102.693 23.5933 103.463 23.5933C104.234 23.5933 104.75 22.7557 104.75 21.7086C104.741 20.6515 104.243 19.8637 103.473 19.8637V19.8637Z" fill="#44BCB6"/>
<path d="M111.748 24.3415H110.658V21.3398C110.658 20.4124 110.32 19.9537 109.662 19.9537C109.014 19.9537 108.573 20.5421 108.573 21.2301V24.3315H107.483V20.6119C107.483 20.1531 107.474 19.6545 107.446 19.116H108.404L108.451 19.9238H108.479C108.77 19.3653 109.371 19.0063 110.038 19.0063C111.071 19.0063 111.748 19.844 111.748 21.2102V24.3415Z" fill="#44BCB6"/>
<defs>
<linearGradient id="paint0_linear_1:29" x1="33.052" y1="19.4324" x2="9.49498" y2="25.6634" gradientUnits="userSpaceOnUse">
<stop stop-color="#00A0FF"/>
<stop offset="0.007" stop-color="#00A1FF"/>
<stop offset="0.26" stop-color="#00BEFF"/>
<stop offset="0.512" stop-color="#00D2FF"/>
<stop offset="0.76" stop-color="#00DFFF"/>
<stop offset="1" stop-color="#00E3FF"/>
</linearGradient>
<linearGradient id="paint1_linear_1:29" x1="47.3248" y1="32.9235" x2="18.6297" y2="32.9235" gradientUnits="userSpaceOnUse">
<stop stop-color="#FFE000"/>
<stop offset="0.409" stop-color="#FFBD00"/>
<stop offset="0.775" stop-color="#FFA500"/>
<stop offset="1" stop-color="#FF9C00"/>
</linearGradient>
<linearGradient id="paint2_linear_1:29" x1="36.6425" y1="35.6673" x2="17.5437" y2="67.5771" gradientUnits="userSpaceOnUse">
<stop stop-color="#FF3A44"/>
<stop offset="1" stop-color="#C31162"/>
</linearGradient>
<linearGradient id="paint3_linear_1:29" x1="15.8515" y1="9.24406" x2="24.3721" y2="23.4956" gradientUnits="userSpaceOnUse">
<stop stop-color="#32A071"/>
<stop offset="0.069" stop-color="#2DA771"/>
<stop offset="0.476" stop-color="#15CF74"/>
<stop offset="0.801" stop-color="#06E775"/>
<stop offset="1" stop-color="#00F076"/>
</linearGradient>
</defs>
</svg>
