<svg width="187" height="50" viewBox="0 0 187 50" fill="none" xmlns="http://www.w3.org/2000/svg">
<path d="M42.1473 36.8222L42.1472 36.8222C40.6793 38.4835 40.238 40.6912 40.9902 42.669C40.9902 42.6691 40.9903 42.6692 40.9903 42.6693L41.6246 44.3351L41.8446 44.9128L41.4262 45.3679C40.6026 46.2634 39.7318 47.1191 38.8179 47.9324L38.2271 48.4582L37.5794 48.0045L33.6397 45.2448C32.1975 44.2365 30.3641 43.8312 28.5805 44.142C28.5803 44.142 28.5802 44.1421 28.58 44.1421L28.4082 43.1569L42.1473 36.8222ZM42.1473 36.8222C45.4331 33.1029 47.4195 28.3137 47.4191 23.0843L42.1473 36.8222ZM24.5518 1.57715C11.994 1.57715 1.6828 11.1572 1.68457 23.0843L47.4191 23.0842C47.4191 11.1459 37.119 1.57715 24.5518 1.57715Z" fill="#00D9CD" stroke="white" stroke-width="2"/>
<path fill-rule="evenodd" clip-rule="evenodd" d="M41.3973 35.8323C39.7001 37.753 39.1619 40.3487 40.0551 42.697L40.6896 44.3631C39.8889 45.2338 39.0419 46.0661 38.1526 46.8576L34.2122 44.0974C32.5492 42.9347 30.447 42.4736 28.4077 42.8291C27.0925 43.0597 25.6204 43.2636 24.5513 43.2636C21.9995 35.6719 21.9995 35.6719 21.4512 33.6719C23.9995 31.1719 25.9995 33.6719 22.4994 27.1719C29.4996 19.1719 27.9996 21.1719 29.9996 11.6719C42.4996 20.1719 34.4996 14.6719 46.4186 22.7564C46.4188 26.3526 45.4311 29.7331 43.6968 32.6719C43.0347 33.7939 42.2637 34.8516 41.3973 35.8323Z" fill="#1ABFB6"/>
<path fill-rule="evenodd" clip-rule="evenodd" d="M28.6426 23.0156C26.5623 24.5407 26.5241 25.605 26.5241 27.4494C26.5241 28.1235 26.1461 28.9034 24.2925 28.9034C22.742 28.9034 22.2126 28.3715 22.2126 26.527C22.2126 23.4766 23.65 22.0222 24.7466 21.1355C25.9948 20.1424 28.1129 19.0428 28.1129 17.1276C28.1129 15.496 26.6002 14.7155 24.7087 14.7155C20.8509 14.7155 21.6829 17.4466 19.6405 17.4466C18.6193 17.4466 17.3711 16.8082 17.3711 15.4247C17.3711 13.5097 19.7162 10.6719 24.8226 10.6719C29.6638 10.6719 32.8788 13.1904 32.8788 16.5243C32.8788 19.8585 29.6638 22.2708 28.6426 23.0156ZM27.243 34.0821C27.243 35.5362 25.9569 36.8133 24.3303 36.8133C22.7045 36.8133 21.4562 35.5362 21.4562 34.0821C21.4562 32.5922 22.7423 31.3507 24.3303 31.3507C25.9191 31.3507 27.243 32.5922 27.243 34.0821Z" fill="white"/>
<path d="M78.5586 34.7236H64.7891L61.9082 43H55.4873L68.915 7.45312H74.457L87.9092 43H81.4639L78.5586 34.7236ZM66.5225 29.7432H76.8252L71.6738 14.9971L66.5225 29.7432ZM104.695 35.8223C104.695 34.7643 104.256 33.9587 103.377 33.4053C102.514 32.8519 101.074 32.3636 99.0557 31.9404C97.0374 31.5173 95.3529 30.9801 94.002 30.3291C91.0397 28.8968 89.5586 26.8216 89.5586 24.1035C89.5586 21.8249 90.5189 19.9206 92.4395 18.3906C94.36 16.8607 96.8014 16.0957 99.7637 16.0957C102.921 16.0957 105.468 16.877 107.405 18.4395C109.358 20.002 110.335 22.0283 110.335 24.5186H104.402C104.402 23.3792 103.979 22.4352 103.133 21.6865C102.286 20.9215 101.163 20.5391 99.7637 20.5391C98.4616 20.5391 97.3955 20.8402 96.5654 21.4424C95.7516 22.0446 95.3447 22.8503 95.3447 23.8594C95.3447 24.7708 95.7272 25.4788 96.4922 25.9834C97.2572 26.488 98.8034 27.0007 101.131 27.5215C103.458 28.026 105.281 28.6364 106.6 29.3525C107.934 30.0524 108.919 30.8988 109.554 31.8916C110.205 32.8844 110.53 34.0889 110.53 35.5049C110.53 37.8812 109.546 39.8099 107.576 41.291C105.607 42.7559 103.027 43.4883 99.8369 43.4883C97.6722 43.4883 95.7435 43.0977 94.0508 42.3164C92.3581 41.5352 91.0397 40.4609 90.0957 39.0938C89.1517 37.7266 88.6797 36.2536 88.6797 34.6748H94.4414C94.5228 36.0745 95.0518 37.1569 96.0283 37.9219C97.0049 38.6706 98.2988 39.0449 99.9102 39.0449C101.473 39.0449 102.661 38.752 103.475 38.166C104.288 37.5638 104.695 36.7826 104.695 35.8223ZM122.8 31.6719L120.163 34.3818V43H114.23V5.5H120.163V27.1309L122.019 24.8115L129.318 16.584H136.447L126.633 27.5947L137.497 43H130.637L122.8 31.6719Z" fill="white"/>
<path d="M150.475 43.4883C146.715 43.4883 143.663 42.3083 141.319 39.9482C138.992 37.5719 137.828 34.4144 137.828 30.4756V29.7432C137.828 27.1064 138.333 24.7546 139.342 22.6875C140.367 20.6042 141.799 18.9847 143.639 17.8291C145.478 16.6735 147.529 16.0957 149.791 16.0957C153.388 16.0957 156.163 17.2432 158.116 19.5381C160.086 21.833 161.07 25.0801 161.07 29.2793V31.6719H143.81C143.989 33.8529 144.713 35.5781 145.982 36.8477C147.268 38.1172 148.88 38.752 150.816 38.752C153.535 38.752 155.748 37.6533 157.457 35.4561L160.655 38.5078C159.597 40.0866 158.181 41.3154 156.407 42.1943C154.649 43.057 152.672 43.4883 150.475 43.4883ZM149.767 20.8564C148.139 20.8564 146.821 21.4261 145.812 22.5654C144.819 23.7048 144.184 25.2917 143.907 27.3262H155.211V26.8867C155.081 24.901 154.552 23.4036 153.624 22.3945C152.696 21.3691 151.41 20.8564 149.767 20.8564ZM178.027 22.0039C177.246 21.8737 176.44 21.8086 175.61 21.8086C172.892 21.8086 171.061 22.8503 170.117 24.9336V43H164.185V16.584H169.849L169.995 19.5381C171.427 17.2432 173.413 16.0957 175.952 16.0957C176.799 16.0957 177.498 16.2096 178.052 16.4375L178.027 22.0039ZM179.726 36.75C180.832 36.75 181.687 37.0674 182.289 37.7021C182.891 38.3206 183.192 39.1019 183.192 40.0459C183.192 40.9736 182.891 41.7467 182.289 42.3652C181.687 42.9674 180.832 43.2686 179.726 43.2686C178.668 43.2686 177.829 42.9674 177.211 42.3652C176.592 41.763 176.283 40.9899 176.283 40.0459C176.283 39.1019 176.584 38.3206 177.187 37.7021C177.789 37.0674 178.635 36.75 179.726 36.75Z" fill="#00D9CD"/>
</svg>
