<svg width="99" height="45" viewBox="0 0 99 45" fill="none" xmlns="http://www.w3.org/2000/svg">
<g filter="url(#filter0_d_324:8734)">
<path d="M25.1793 22.5547H18.2414L16.9224 26.5117H12.7147L19.8637 7.30695H23.5306L30.7192 26.5117H26.5115L25.1793 22.5547ZM19.3098 19.3495H24.111L21.6972 12.1609L19.3098 19.3495ZM39.9918 22.5679C39.9918 22.1018 39.7588 21.7369 39.2927 21.4731C38.8355 21.2005 38.0968 20.9587 37.0768 20.7477C33.6826 20.0354 31.9854 18.5933 31.9854 16.4213C31.9854 15.1551 32.5086 14.0998 33.5551 13.2557C34.6103 12.4027 35.9864 11.9762 37.6835 11.9762C39.495 11.9762 40.9415 12.4027 42.0231 13.2557C43.1135 14.1086 43.6587 15.2166 43.6587 16.5796H39.8467C39.8467 16.0344 39.6709 15.5859 39.3191 15.2342C38.9674 14.8737 38.4178 14.6934 37.6704 14.6934C37.0284 14.6934 36.5316 14.8385 36.1799 15.1287C35.8281 15.4189 35.6523 15.7882 35.6523 16.2366C35.6523 16.6587 35.8501 17.0017 36.2458 17.2655C36.6503 17.5205 37.3274 17.7447 38.2771 17.9382C39.2268 18.1228 40.027 18.3339 40.6777 18.5713C42.6914 19.3099 43.6982 20.5894 43.6982 22.4096C43.6982 23.711 43.1398 24.7662 42.0231 25.5752C40.9063 26.3754 39.4642 26.7755 37.6967 26.7755C36.5008 26.7755 35.4368 26.5645 34.5047 26.1424C33.5814 25.7115 32.856 25.1268 32.3284 24.3881C31.8008 23.6407 31.537 22.8361 31.537 21.9743H35.1511C35.1862 22.6514 35.4368 23.1702 35.9029 23.5308C36.3689 23.8913 36.9933 24.0716 37.7759 24.0716C38.5057 24.0716 39.0553 23.9353 39.4246 23.6627C39.8028 23.3813 39.9918 23.0163 39.9918 22.5679ZM51.3485 20.7872L49.9767 22.159V26.5117H46.1648V6.25175H49.9767V17.4765L50.7154 16.5268L54.369 12.24H58.946L53.7886 18.1888L59.3944 26.5117H55.0153L51.3485 20.7872Z" fill="white"/>
<path d="M67.0579 26.7755C65.0266 26.7755 63.3778 26.138 62.1116 24.863C60.8541 23.5791 60.2254 21.8732 60.2254 19.7452V19.3495C60.2254 17.925 60.498 16.6543 61.0432 15.5376C61.5972 14.412 62.371 13.5371 63.3646 12.9127C64.3583 12.2884 65.4663 11.9762 66.6885 11.9762C68.6319 11.9762 70.1312 12.5962 71.1864 13.836C72.2504 15.0759 72.7824 16.8302 72.7824 19.0989V20.3915H63.457C63.5537 21.5698 63.945 22.5019 64.6309 23.1878C65.3256 23.8737 66.1961 24.2166 67.2425 24.2166C68.711 24.2166 69.9069 23.6231 70.8302 22.436L72.5581 24.0847C71.9866 24.9377 71.2215 25.6016 70.2631 26.0764C69.3134 26.5425 68.245 26.7755 67.0579 26.7755ZM66.6754 14.5483C65.796 14.5483 65.0838 14.8561 64.5386 15.4716C64.0022 16.0872 63.6592 16.9445 63.5097 18.0437H69.6167V17.8063C69.5464 16.7335 69.2606 15.9245 68.7594 15.3793C68.2582 14.8253 67.5635 14.5483 66.6754 14.5483ZM82.7541 15.1682C82.332 15.0979 81.8967 15.0627 81.4483 15.0627C79.9798 15.0627 78.9905 15.6255 78.4805 16.7511V26.5117H75.2753V12.24H78.3354L78.4145 13.836C79.1884 12.5962 80.2611 11.9762 81.6329 11.9762C82.0902 11.9762 82.4683 12.0378 82.7673 12.1609L82.7541 15.1682ZM84.482 23.1351C85.0799 23.1351 85.5416 23.3065 85.8669 23.6495C86.1923 23.9836 86.355 24.4057 86.355 24.9157C86.355 25.4169 86.1923 25.8346 85.8669 26.1688C85.5416 26.4941 85.0799 26.6568 84.482 26.6568C83.9104 26.6568 83.4575 26.4941 83.1234 26.1688C82.7892 25.8434 82.6222 25.4257 82.6222 24.9157C82.6222 24.4057 82.7848 23.9836 83.1102 23.6495C83.4356 23.3065 83.8928 23.1351 84.482 23.1351Z" fill="#5468FF"/>
</g>
<defs>
<filter id="filter0_d_324:8734" x="0.714722" y="0.251953" width="97.6403" height="44.5234" filterUnits="userSpaceOnUse" color-interpolation-filters="sRGB">
<feFlood flood-opacity="0" result="BackgroundImageFix"/>
<feColorMatrix in="SourceAlpha" type="matrix" values="0 0 0 0 0 0 0 0 0 0 0 0 0 0 0 0 0 0 127 0" result="hardAlpha"/>
<feOffset dy="6"/>
<feGaussianBlur stdDeviation="6"/>
<feComposite in2="hardAlpha" operator="out"/>
<feColorMatrix type="matrix" values="0 0 0 0 0 0 0 0 0 0.0633528 0 0 0 0 0.541667 0 0 0 0.05 0"/>
<feBlend mode="normal" in2="BackgroundImageFix" result="effect1_dropShadow_324:8734"/>
<feBlend mode="normal" in="SourceGraphic" in2="effect1_dropShadow_324:8734" result="shape"/>
</filter>
</defs>
</svg>
