<svg width="29" height="29" viewBox="0 0 29 29" fill="none" xmlns="http://www.w3.org/2000/svg">
<g filter="url(#filter0_d_1325_829)">
<path fill-rule="evenodd" clip-rule="evenodd" d="M14.5002 21C20.2992 21 25 16.2992 25 10.5001C25 4.70084 20.2992 0 14.5002 0C8.70141 0 4 4.70084 4 10.5001C4 16.2992 8.70141 21 14.5002 21Z" fill="#5468FF"/>
<path fill-rule="evenodd" clip-rule="evenodd" d="M15.4527 5.44464C15.4527 4.88622 14.9999 4.43359 14.4415 4.43359C13.883 4.43359 13.4305 4.88622 13.4305 5.44464V9.4892H9.38619C8.8271 9.4892 8.375 9.94107 8.375 10.5003C8.375 11.0594 8.8271 11.5113 9.38619 11.5113H13.4305V15.5559C13.4305 16.1143 13.883 16.5669 14.4415 16.5669C14.9999 16.5669 15.4527 16.1143 15.4527 15.5559V11.5113H19.497C20.0559 11.5113 20.508 11.0594 20.508 10.5003C20.508 9.94107 20.0559 9.4892 19.497 9.4892H15.4527V5.44464Z" fill="white"/>
</g>
<defs>
<filter id="filter0_d_1325_829" x="0.0616839" y="0" width="28.8766" height="28.8766" filterUnits="userSpaceOnUse" color-interpolation-filters="sRGB">
<feFlood flood-opacity="0" result="BackgroundImageFix"/>
<feColorMatrix in="SourceAlpha" type="matrix" values="0 0 0 0 0 0 0 0 0 0 0 0 0 0 0 0 0 0 127 0" result="hardAlpha"/>
<feOffset dy="3.93832"/>
<feGaussianBlur stdDeviation="1.96916"/>
<feComposite in2="hardAlpha" operator="out"/>
<feColorMatrix type="matrix" values="0 0 0 0 0 0 0 0 0 0 0 0 0 0 0 0 0 0 0.1 0"/>
<feBlend mode="normal" in2="BackgroundImageFix" result="effect1_dropShadow_1325_829"/>
<feBlend mode="normal" in="SourceGraphic" in2="effect1_dropShadow_1325_829" result="shape"/>
</filter>
</defs>
</svg>
