<svg width="23" height="24" viewBox="0 0 23 24" fill="none" xmlns="http://www.w3.org/2000/svg">
<path fill-rule="evenodd" clip-rule="evenodd" d="M11.6735 23.0156C17.8183 23.0156 22.7993 18.0345 22.7993 11.8897C22.7993 5.74476 17.8183 0.763672 11.6735 0.763672C5.52905 0.763672 0.547363 5.74476 0.547363 11.8897C0.547363 18.0345 5.52905 23.0156 11.6735 23.0156Z" fill="#5468FF"/>
<path fill-rule="evenodd" clip-rule="evenodd" d="M13.0491 5.47394C13.0491 4.78391 12.5327 4.22461 11.8957 4.22461C11.2587 4.22461 10.7425 4.78391 10.7425 5.47394V10.4708H6.12804C5.4903 10.4708 4.97461 11.0292 4.97461 11.7202C4.97461 12.4111 5.4903 12.9695 6.12804 12.9695H10.7425V17.9682C10.7425 18.6582 11.2587 19.2175 11.8957 19.2175C12.5327 19.2175 13.0491 18.6582 13.0491 17.9682V12.9695H17.661C18.2985 12.9695 18.8142 12.4111 18.8142 11.7202C18.8142 11.0292 18.2985 10.4708 17.661 10.4708H13.0491V5.47394Z" fill="white"/>
</svg>
