<svg width="18" height="17" viewBox="0 0 18 17" fill="none" xmlns="http://www.w3.org/2000/svg">
<path fill-rule="evenodd" clip-rule="evenodd" d="M9.45178 0.0722656C4.85832 0.0722656 1.12181 3.80582 1.12181 8.39535C1.12181 9.84725 1.50181 11.2738 2.22214 12.5285L0.853748 16.6293C0.821117 16.7277 0.844904 16.8357 0.915654 16.9113C0.969937 16.9692 1.04496 17.0005 1.12181 17.0005C1.1459 17.0005 1.16969 16.9973 1.19378 16.9912L5.6741 15.8133C6.83788 16.4058 8.14162 16.7184 9.45178 16.7184C14.0452 16.7184 17.7817 12.9849 17.7817 8.39535C17.7817 3.80582 14.0452 0.0722656 9.45178 0.0722656ZM5.63964 9.66492C5.0169 9.66492 4.51034 9.15878 4.51034 8.53638C4.51034 7.91397 5.0169 7.40785 5.63964 7.40785C6.26269 7.40785 6.76925 7.91397 6.76925 8.53638C6.76925 9.15878 6.26269 9.66492 5.63964 9.66492ZM9.31057 9.66492C8.68782 9.66492 8.18096 9.15878 8.18096 8.53638C8.18096 7.91397 8.68782 7.40785 9.31057 7.40785C9.93333 7.40785 10.4402 7.91397 10.4402 8.53638C10.4402 9.15878 9.93333 9.66492 9.31057 9.66492ZM12.9819 9.66478C12.3588 9.66478 11.8523 9.15864 11.8523 8.53624C11.8523 7.91384 12.3588 7.40771 12.9819 7.40771C13.6049 7.40771 14.1112 7.91384 14.1112 8.53624C14.1112 9.15864 13.6049 9.66478 12.9819 9.66478Z" fill="white"/>
</svg>
