<svg width="18" height="20" viewBox="0 0 18 20" fill="none" xmlns="http://www.w3.org/2000/svg">
<path d="M15.6665 8.33328H12.3332H5.6665V5.99995C5.6665 4.24995 6.9165 2.66662 8.6665 2.49995C10.6665 2.33328 12.3332 3.91662 12.3332 5.83328C12.3332 6.33328 12.6665 6.66662 13.1665 6.66662H13.9998C14.4998 6.66662 14.8332 6.33328 14.8332 5.83328C14.8332 2.66662 12.3332 0.0832818 9.1665 -5.15807e-05C5.9165 -0.0833849 3.1665 2.58328 3.1665 5.83328V8.33328H2.33317C1.4165 8.33328 0.666504 9.08328 0.666504 9.99995V15.8333C0.666504 18.1666 2.49984 19.9999 4.83317 19.9999H13.1665C15.4998 19.9999 17.3332 18.1666 17.3332 15.8333V9.99995C17.3332 9.08328 16.5832 8.33328 15.6665 8.33328ZM9.83317 14.7499V15.8333C9.83317 16.2499 9.4165 16.6666 8.99984 16.6666C8.58317 16.6666 8.1665 16.2499 8.1665 15.8333V14.7499C7.6665 14.4999 7.33317 13.9166 7.33317 13.3333C7.33317 12.4166 8.08317 11.6666 8.99984 11.6666C9.9165 11.6666 10.6665 12.4166 10.6665 13.3333C10.6665 13.9166 10.3332 14.4999 9.83317 14.7499Z" fill="#5468FF"/>
</svg>
