<svg width="12" height="20" viewBox="0 0 12 20" fill="none" xmlns="http://www.w3.org/2000/svg">
<path fill-rule="evenodd" clip-rule="evenodd" d="M11.4144 1.25472C11.0523 0.892124 10.6226 0.710938 10.1268 0.710938H2.80058C2.30475 0.710938 1.87537 0.892124 1.51272 1.25472C1.15036 1.61711 0.96875 2.04623 0.96875 2.54247V17.1948C0.96875 17.6909 1.15036 18.12 1.51272 18.4826C1.87537 18.8452 2.30475 19.0263 2.80058 19.0263H10.1268C10.6226 19.0263 11.0523 18.845 11.4144 18.4826C11.7767 18.12 11.9584 17.6909 11.9584 17.1948V2.54247C11.9584 2.04623 11.777 1.61731 11.4144 1.25472ZM10.5852 14.9054C10.5852 15.0294 10.5396 15.1373 10.4489 15.2277C10.358 15.3181 10.2507 15.3631 10.1271 15.3631H2.80058C2.67641 15.3631 2.56914 15.3179 2.47876 15.2277C2.3881 15.1373 2.34276 15.0294 2.34276 14.9054V4.83209C2.34276 4.70803 2.3881 4.60061 2.47876 4.51021C2.56942 4.41961 2.67641 4.37401 2.80058 4.37401H10.1268C10.2507 4.37401 10.358 4.41961 10.4489 4.51021C10.5396 4.60061 10.5846 4.70803 10.5846 4.83209V14.9054H10.5852Z" fill="white"/>
</svg>
