<svg width="21" height="21" viewBox="0 0 21 21" fill="none" xmlns="http://www.w3.org/2000/svg">
<path fill-rule="evenodd" clip-rule="evenodd" d="M10.5001 20.9999C16.2989 20.9999 21.0001 16.2989 21.0001 10.5C21.0001 4.70085 16.2989 2.1e-05 10.5001 2.1e-05C4.70106 2.1e-05 6.3e-05 4.70085 6.3e-05 10.5C6.3e-05 16.2989 4.70106 20.9999 10.5001 20.9999Z" fill="#ADB8FA"/>
<path d="M14.7044 9.64601C15.3423 10.036 15.3423 10.9625 14.7044 11.3524L8.69667 15.025C8.03032 15.4324 7.1751 14.9528 7.1751 14.1718L7.1751 6.82662C7.1751 6.04562 8.03032 5.56607 8.69667 5.97342L14.7044 9.64601Z" fill="white"/>
</svg>
