<svg width="22" height="21" viewBox="0 0 22 21" fill="none" xmlns="http://www.w3.org/2000/svg">
<path fill-rule="evenodd" clip-rule="evenodd" d="M10.5497 0.327657C10.099 0.356718 9.70498 0.643061 9.53796 1.06231L7.13637 6.55555L1.05685 7.26096C0.592473 7.31348 0.203523 7.63659 0.0678963 8.08322L0.067325 8.0851C-0.0678735 8.53156 0.074532 9.01538 0.430711 9.31764L5.10037 13.2789L4.05092 19.1819C3.95757 19.6249 4.12686 20.0819 4.4865 20.3558C4.84608 20.6297 5.3315 20.6728 5.73322 20.4654L11.2129 17.3321L16.8851 20.4979C17.2903 20.7062 17.7802 20.6604 18.1401 20.3798C18.3345 20.2284 18.4722 20.0226 18.5409 19.7956C18.5992 19.603 18.6084 19.3955 18.5609 19.1919L16.8758 13.1749L21.6159 9.1035C21.7684 8.9604 21.8759 8.7827 21.9342 8.59011C22.0028 8.36362 22.0027 8.11756 21.9253 7.88386C21.7828 7.45139 21.4021 7.14145 20.95 7.08784L14.4705 6.57468L11.648 0.924914C11.4284 0.530905 11.0008 0.2982 10.5497 0.327657Z" fill="#ADB8FA" fill-opacity="0.5"/>
</svg>
