<svg width="23" height="21" viewBox="0 0 23 21" fill="none" xmlns="http://www.w3.org/2000/svg">
<path fill-rule="evenodd" clip-rule="evenodd" d="M11.3116 0.327657C10.861 0.356718 10.4669 0.643061 10.2999 1.06231L7.89833 6.55555L1.81881 7.26096C1.35444 7.31348 0.965486 7.63659 0.829859 8.08322L0.829288 8.0851C0.694089 8.53156 0.836495 9.01538 1.19267 9.31764L5.86233 13.2789L4.81288 19.1819C4.71953 19.6249 4.88883 20.0819 5.24846 20.3558C5.60804 20.6297 6.09347 20.6728 6.49518 20.4654L11.9749 17.3321L17.647 20.4979C18.0523 20.7062 18.5422 20.6604 18.9021 20.3798C19.0964 20.2284 19.2341 20.0226 19.3029 19.7956C19.3612 19.603 19.3703 19.3955 19.3229 19.1919L17.6378 13.1749L22.3779 9.1035C22.5304 8.9604 22.6379 8.7827 22.6962 8.59011C22.7648 8.36362 22.7647 8.11756 22.6873 7.88386C22.5447 7.45139 22.1641 7.14145 21.712 7.08784L15.2325 6.57468L12.4099 0.924914C12.1903 0.530905 11.7627 0.2982 11.3116 0.327657Z" fill="white"/>
</svg>
