<svg width="19" height="18" viewBox="0 0 19 18" fill="none" xmlns="http://www.w3.org/2000/svg">
<path fill-rule="evenodd" clip-rule="evenodd" d="M18.2199 16.4075C18.2199 16.4075 18.2199 13.3927 16.0173 12.2972C14.6234 11.6037 15.1604 12.1341 13.4489 11.4249C11.7383 10.7164 11.3329 10.4849 11.3329 10.4849L11.3179 8.85964C11.3179 8.85964 11.9584 8.37347 12.1582 6.83672C12.5587 6.95263 12.694 6.36736 12.716 5.99391C12.7396 5.63279 12.9523 4.50799 12.4627 4.60838C12.563 3.857 12.6414 3.17774 12.6065 2.81833C12.4838 1.55657 11.6113 0.23886 9.40898 0.142524C7.53651 0.23886 6.32102 1.55741 6.19862 2.81918C6.16313 3.17902 6.23503 3.85744 6.3354 4.60985C5.84609 4.50821 6.05694 5.63535 6.07806 5.99625C6.10162 6.3697 6.23442 6.95624 6.6353 6.84034C6.8342 8.37751 7.47529 8.86772 7.47529 8.86772L7.45907 10.5012C7.45907 10.5012 7.05393 10.7488 5.3427 11.4567C3.6318 12.1666 4.16855 11.6037 2.77468 12.2972C0.572019 13.3931 0.572019 16.4075 0.572019 16.4075C0.572019 16.4083 0.572019 16.409 0.572019 16.4094C0.572019 16.8664 0.941667 17.2369 1.39885 17.2369H17.3919C17.8494 17.2369 18.2193 16.8664 18.2193 16.4094C18.2193 16.4088 18.2193 16.4083 18.2193 16.4075H18.2199Z" fill="#5468FF"/>
</svg>
